STARTFONT 2.1
COMMENT  
COMMENT  WARNING:  This bdf file was generated from an X server using
COMMENT  xbdfdump.  The resulting font is subject to the same copyright,
COMMENT  license, and trademark restrictions as the original font.  The
COMMENT  author and distributors of xbdfdump disclaim all liability for
COMMENT  misuse of the program or its output.
COMMENT  
FONT -phaisarn-phaisarn97-medium-r-normal--14-140-75-75-m-90-tis620-0
SIZE 14 75 75
FONTBOUNDINGBOX 20 23 -9 -5
STARTPROPERTIES 24
FONTNAME_REGISTRY ""
FAMILY_NAME "phaisarn97"
FOUNDRY "phaisarn"
WEIGHT_NAME "medium"
SLANT "r"
SETWIDTH_NAME "normal"
ADD_STYLE_NAME ""
PIXEL_SIZE 14
POINT_SIZE 140
RESOLUTION_X 75
RESOLUTION_Y 75
SPACING "m"
AVERAGE_WIDTH 90
CHARSET_REGISTRY "tis620"
CHARSET_ENCODING "0"
CHARSET_COLLECTIONS "ASCII ISO8859-11 PHAISARN-STANDARD"
FACE_NAME "Phaisarn97"
COPYRIGHT "Copyright (c) 1997 Phaisarn Systems, Inc."
CAP_HEIGHT 9
X_HEIGHT 7
WEIGHT 10
QUAD_WIDTH 4
FONT_ASCENT 18
FONT_DESCENT 6
ENDPROPERTIES
CHARS 183
STARTCHAR space
ENCODING 32
SWIDTH 617 0
DWIDTH 9 0
BBX 1 1 0 0
BITMAP
00
ENDCHAR
STARTCHAR exclam
ENCODING 33
SWIDTH 617 0
DWIDTH 9 0
BBX 1 10 3 0
BITMAP
80
80
80
80
80
80
80
00
00
80
ENDCHAR
STARTCHAR quotedbl
ENCODING 34
SWIDTH 617 0
DWIDTH 9 0
BBX 4 4 2 5
BITMAP
90
90
90
90
ENDCHAR
STARTCHAR numbersign
ENCODING 35
SWIDTH 617 0
DWIDTH 9 0
BBX 5 9 2 0
BITMAP
50
50
50
f8
50
f8
50
50
50
ENDCHAR
STARTCHAR dollar
ENCODING 36
SWIDTH 617 0
DWIDTH 9 0
BBX 5 13 2 -2
BITMAP
20
20
78
88
80
c0
30
08
88
f0
20
20
20
ENDCHAR
STARTCHAR percent
ENCODING 37
SWIDTH 617 0
DWIDTH 9 0
BBX 7 10 1 0
BITMAP
60
90
90
66
18
30
cc
12
12
0c
ENDCHAR
STARTCHAR ampersand
ENCODING 38
SWIDTH 617 0
DWIDTH 9 0
BBX 6 8 1 0
BITMAP
38
48
40
40
a8
90
98
64
ENDCHAR
STARTCHAR apostrophe
ENCODING 39
SWIDTH 617 0
DWIDTH 9 0
BBX 3 4 2 5
BITMAP
60
60
c0
80
ENDCHAR
STARTCHAR parenleft
ENCODING 40
SWIDTH 617 0
DWIDTH 9 0
BBX 3 12 3 -2
BITMAP
20
40
40
80
80
80
80
80
80
40
40
20
ENDCHAR
STARTCHAR parenright
ENCODING 41
SWIDTH 617 0
DWIDTH 9 0
BBX 3 12 2 -2
BITMAP
80
40
40
20
20
20
20
20
20
40
40
80
ENDCHAR
STARTCHAR asterisk
ENCODING 42
SWIDTH 617 0
DWIDTH 9 0
BBX 5 6 1 3
BITMAP
20
20
f8
20
50
88
ENDCHAR
STARTCHAR plus
ENCODING 43
SWIDTH 617 0
DWIDTH 9 0
BBX 7 7 1 1
BITMAP
10
10
10
fe
10
10
10
ENDCHAR
STARTCHAR comma
ENCODING 44
SWIDTH 617 0
DWIDTH 9 0
BBX 3 4 2 -2
BITMAP
60
60
c0
80
ENDCHAR
STARTCHAR minus
ENCODING 45
SWIDTH 617 0
DWIDTH 9 0
BBX 7 1 1 4
BITMAP
fe
ENDCHAR
STARTCHAR period
ENCODING 46
SWIDTH 617 0
DWIDTH 9 0
BBX 2 2 3 0
BITMAP
c0
c0
ENDCHAR
STARTCHAR slash
ENCODING 47
SWIDTH 617 0
DWIDTH 9 0
BBX 6 11 1 -1
BITMAP
04
08
08
10
10
20
20
40
40
80
80
ENDCHAR
STARTCHAR 0
ENCODING 48
SWIDTH 617 0
DWIDTH 9 0
BBX 6 10 1 0
BITMAP
78
84
84
84
84
84
84
84
84
78
ENDCHAR
STARTCHAR 1
ENCODING 49
SWIDTH 617 0
DWIDTH 9 0
BBX 5 10 1 0
BITMAP
20
60
a0
20
20
20
20
20
20
f8
ENDCHAR
STARTCHAR 2
ENCODING 50
SWIDTH 617 0
DWIDTH 9 0
BBX 6 10 1 0
BITMAP
78
84
84
04
08
10
20
40
84
fc
ENDCHAR
STARTCHAR 3
ENCODING 51
SWIDTH 617 0
DWIDTH 9 0
BBX 6 10 1 0
BITMAP
78
84
04
04
38
04
04
04
84
78
ENDCHAR
STARTCHAR 4
ENCODING 52
SWIDTH 617 0
DWIDTH 9 0
BBX 6 10 1 0
BITMAP
18
28
28
48
48
88
88
fc
08
1c
ENDCHAR
STARTCHAR 5
ENCODING 53
SWIDTH 617 0
DWIDTH 9 0
BBX 6 10 1 0
BITMAP
7c
40
40
40
78
04
04
04
84
78
ENDCHAR
STARTCHAR 6
ENCODING 54
SWIDTH 617 0
DWIDTH 9 0
BBX 6 10 1 0
BITMAP
38
40
80
80
b8
c4
84
84
44
38
ENDCHAR
STARTCHAR 7
ENCODING 55
SWIDTH 617 0
DWIDTH 9 0
BBX 6 10 1 0
BITMAP
fc
84
04
08
08
08
10
10
10
10
ENDCHAR
STARTCHAR 8
ENCODING 56
SWIDTH 617 0
DWIDTH 9 0
BBX 6 10 1 0
BITMAP
78
84
84
84
78
84
84
84
84
78
ENDCHAR
STARTCHAR 9
ENCODING 57
SWIDTH 617 0
DWIDTH 9 0
BBX 6 10 1 0
BITMAP
70
88
84
84
8c
74
04
04
08
70
ENDCHAR
STARTCHAR colon
ENCODING 58
SWIDTH 617 0
DWIDTH 9 0
BBX 2 7 3 0
BITMAP
c0
c0
00
00
00
c0
c0
ENDCHAR
STARTCHAR semicolon
ENCODING 59
SWIDTH 617 0
DWIDTH 9 0
BBX 3 9 2 -2
BITMAP
60
60
00
00
00
60
60
c0
80
ENDCHAR
STARTCHAR less
ENCODING 60
SWIDTH 617 0
DWIDTH 9 0
BBX 7 7 1 1
BITMAP
06
18
60
80
60
18
06
ENDCHAR
STARTCHAR equal
ENCODING 61
SWIDTH 617 0
DWIDTH 9 0
BBX 7 3 1 3
BITMAP
fe
00
fe
ENDCHAR
STARTCHAR greater
ENCODING 62
SWIDTH 617 0
DWIDTH 9 0
BBX 7 7 1 1
BITMAP
c0
30
0c
02
0c
30
c0
ENDCHAR
STARTCHAR question
ENCODING 63
SWIDTH 617 0
DWIDTH 9 0
BBX 5 9 1 0
BITMAP
70
88
88
08
10
20
20
00
20
ENDCHAR
STARTCHAR at
ENCODING 64
SWIDTH 617 0
DWIDTH 9 0
BBX 7 10 1 -1
BITMAP
38
44
84
9c
a4
a4
9e
80
40
38
ENDCHAR
STARTCHAR A
ENCODING 65
SWIDTH 617 0
DWIDTH 9 0
BBX 9 9 0 0
BITMAP
3800
0800
1400
1400
2200
3e00
4100
4100
f780
ENDCHAR
STARTCHAR B
ENCODING 66
SWIDTH 617 0
DWIDTH 9 0
BBX 7 9 1 0
BITMAP
fc
42
42
42
7c
42
42
42
fc
ENDCHAR
STARTCHAR C
ENCODING 67
SWIDTH 617 0
DWIDTH 9 0
BBX 7 9 1 0
BITMAP
3a
46
82
80
80
80
80
42
3c
ENDCHAR
STARTCHAR D
ENCODING 68
SWIDTH 617 0
DWIDTH 9 0
BBX 8 9 0 0
BITMAP
fc
42
41
41
41
41
41
42
fc
ENDCHAR
STARTCHAR E
ENCODING 69
SWIDTH 617 0
DWIDTH 9 0
BBX 7 9 1 0
BITMAP
fe
42
42
48
78
48
42
42
fe
ENDCHAR
STARTCHAR F
ENCODING 70
SWIDTH 617 0
DWIDTH 9 0
BBX 7 9 1 0
BITMAP
fe
42
42
48
78
48
40
40
f0
ENDCHAR
STARTCHAR G
ENCODING 71
SWIDTH 617 0
DWIDTH 9 0
BBX 8 9 0 0
BITMAP
3a
46
82
80
80
8f
82
42
3c
ENDCHAR
STARTCHAR H
ENCODING 72
SWIDTH 617 0
DWIDTH 9 0
BBX 8 9 0 0
BITMAP
e7
42
42
42
7e
42
42
42
e7
ENDCHAR
STARTCHAR I
ENCODING 73
SWIDTH 617 0
DWIDTH 9 0
BBX 5 9 2 0
BITMAP
f8
20
20
20
20
20
20
20
f8
ENDCHAR
STARTCHAR J
ENCODING 74
SWIDTH 617 0
DWIDTH 9 0
BBX 7 9 1 0
BITMAP
3e
08
08
08
08
88
88
88
70
ENDCHAR
STARTCHAR K
ENCODING 75
SWIDTH 617 0
DWIDTH 9 0
BBX 8 9 0 0
BITMAP
ee
44
48
50
70
48
44
44
e3
ENDCHAR
STARTCHAR L
ENCODING 76
SWIDTH 617 0
DWIDTH 9 0
BBX 8 9 0 0
BITMAP
f8
20
20
20
20
21
21
21
ff
ENDCHAR
STARTCHAR M
ENCODING 77
SWIDTH 617 0
DWIDTH 9 0
BBX 9 9 0 0
BITMAP
e380
6300
5700
5500
4900
4900
4100
4100
e380
ENDCHAR
STARTCHAR N
ENCODING 78
SWIDTH 617 0
DWIDTH 9 0
BBX 8 9 0 0
BITMAP
e7
62
52
52
4a
4a
46
46
e2
ENDCHAR
STARTCHAR O
ENCODING 79
SWIDTH 617 0
DWIDTH 9 0
BBX 8 9 0 0
BITMAP
3c
42
81
81
81
81
81
42
3c
ENDCHAR
STARTCHAR P
ENCODING 80
SWIDTH 617 0
DWIDTH 9 0
BBX 7 9 1 0
BITMAP
fc
42
42
42
42
7c
40
40
f0
ENDCHAR
STARTCHAR Q
ENCODING 81
SWIDTH 617 0
DWIDTH 9 0
BBX 8 11 0 -2
BITMAP
3c
42
81
81
81
81
81
42
3c
31
5e
ENDCHAR
STARTCHAR R
ENCODING 82
SWIDTH 617 0
DWIDTH 9 0
BBX 8 9 0 0
BITMAP
fc
42
42
42
44
78
44
42
e1
ENDCHAR
STARTCHAR S
ENCODING 83
SWIDTH 617 0
DWIDTH 9 0
BBX 6 9 1 0
BITMAP
74
8c
84
80
78
04
84
c4
b8
ENDCHAR
STARTCHAR T
ENCODING 84
SWIDTH 617 0
DWIDTH 9 0
BBX 7 9 1 0
BITMAP
fe
92
92
10
10
10
10
10
7c
ENDCHAR
STARTCHAR U
ENCODING 85
SWIDTH 617 0
DWIDTH 9 0
BBX 8 9 0 0
BITMAP
e7
42
42
42
42
42
42
42
3c
ENDCHAR
STARTCHAR V
ENCODING 86
SWIDTH 617 0
DWIDTH 9 0
BBX 9 9 0 0
BITMAP
e380
4100
4100
2200
2200
1400
1400
0800
0800
ENDCHAR
STARTCHAR W
ENCODING 87
SWIDTH 617 0
DWIDTH 9 0
BBX 9 9 0 0
BITMAP
e380
4100
4900
4900
5500
5500
2200
2200
2200
ENDCHAR
STARTCHAR X
ENCODING 88
SWIDTH 617 0
DWIDTH 9 0
BBX 8 9 0 0
BITMAP
e7
42
24
24
18
24
24
42
e7
ENDCHAR
STARTCHAR Y
ENCODING 89
SWIDTH 617 0
DWIDTH 9 0
BBX 7 9 1 0
BITMAP
ee
44
44
28
28
10
10
10
7c
ENDCHAR
STARTCHAR Z
ENCODING 90
SWIDTH 617 0
DWIDTH 9 0
BBX 6 9 1 0
BITMAP
fc
84
88
10
20
20
44
84
fc
ENDCHAR
STARTCHAR bracketleft
ENCODING 91
SWIDTH 617 0
DWIDTH 9 0
BBX 3 12 3 -2
BITMAP
e0
80
80
80
80
80
80
80
80
80
80
e0
ENDCHAR
STARTCHAR backslash
ENCODING 92
SWIDTH 617 0
DWIDTH 9 0
BBX 6 11 1 -1
BITMAP
80
40
40
20
20
10
10
08
08
04
04
ENDCHAR
STARTCHAR bracketright
ENCODING 93
SWIDTH 617 0
DWIDTH 9 0
BBX 3 12 2 -2
BITMAP
e0
20
20
20
20
20
20
20
20
20
20
e0
ENDCHAR
STARTCHAR asciicircum
ENCODING 94
SWIDTH 617 0
DWIDTH 9 0
BBX 5 5 2 4
BITMAP
20
50
50
88
88
ENDCHAR
STARTCHAR underscore
ENCODING 95
SWIDTH 617 0
DWIDTH 9 0
BBX 9 1 0 -3
BITMAP
ff80
ENDCHAR
STARTCHAR grave
ENCODING 96
SWIDTH 617 0
DWIDTH 9 0
BBX 3 4 2 5
BITMAP
c0
c0
60
20
ENDCHAR
STARTCHAR a
ENCODING 97
SWIDTH 617 0
DWIDTH 9 0
BBX 7 7 1 0
BITMAP
78
84
04
7c
84
8c
76
ENDCHAR
STARTCHAR b
ENCODING 98
SWIDTH 617 0
DWIDTH 9 0
BBX 8 10 0 0
BITMAP
c0
40
40
5c
62
41
41
41
62
dc
ENDCHAR
STARTCHAR c
ENCODING 99
SWIDTH 617 0
DWIDTH 9 0
BBX 7 7 1 0
BITMAP
3a
46
82
80
80
42
3c
ENDCHAR
STARTCHAR d
ENCODING 100
SWIDTH 617 0
DWIDTH 9 0
BBX 8 10 0 0
BITMAP
06
02
02
3a
46
82
82
82
46
3b
ENDCHAR
STARTCHAR e
ENCODING 101
SWIDTH 617 0
DWIDTH 9 0
BBX 7 7 1 0
BITMAP
38
44
82
fe
80
42
3c
ENDCHAR
STARTCHAR f
ENCODING 102
SWIDTH 617 0
DWIDTH 9 0
BBX 7 10 1 0
BITMAP
1e
20
20
fc
20
20
20
20
20
f8
ENDCHAR
STARTCHAR g
ENCODING 103
SWIDTH 617 0
DWIDTH 9 0
BBX 8 10 0 -3
BITMAP
3b
46
82
82
82
46
3a
02
04
78
ENDCHAR
STARTCHAR h
ENCODING 104
SWIDTH 617 0
DWIDTH 9 0
BBX 8 10 0 0
BITMAP
c0
40
40
5c
62
42
42
42
42
e7
ENDCHAR
STARTCHAR i
ENCODING 105
SWIDTH 617 0
DWIDTH 9 0
BBX 5 10 2 0
BITMAP
20
20
00
e0
20
20
20
20
20
f8
ENDCHAR
STARTCHAR j
ENCODING 106
SWIDTH 617 0
DWIDTH 9 0
BBX 5 13 1 -3
BITMAP
10
10
00
f8
08
08
08
08
08
08
08
10
e0
ENDCHAR
STARTCHAR k
ENCODING 107
SWIDTH 617 0
DWIDTH 9 0
BBX 7 9 1 0
BITMAP
c0
40
4e
48
50
60
50
48
ce
ENDCHAR
STARTCHAR l
ENCODING 108
SWIDTH 617 0
DWIDTH 9 0
BBX 5 9 2 0
BITMAP
e0
20
20
20
20
20
20
20
f8
ENDCHAR
STARTCHAR m
ENCODING 109
SWIDTH 617 0
DWIDTH 9 0
BBX 9 7 0 0
BITMAP
db00
6d00
4900
4900
4900
4900
ed80
ENDCHAR
STARTCHAR n
ENCODING 110
SWIDTH 617 0
DWIDTH 9 0
BBX 8 7 0 0
BITMAP
dc
62
42
42
42
42
e7
ENDCHAR
STARTCHAR o
ENCODING 111
SWIDTH 617 0
DWIDTH 9 0
BBX 8 7 0 0
BITMAP
3c
42
81
81
81
42
3c
ENDCHAR
STARTCHAR p
ENCODING 112
SWIDTH 617 0
DWIDTH 9 0
BBX 8 10 0 -3
BITMAP
dc
62
41
41
41
62
5c
40
40
f0
ENDCHAR
STARTCHAR q
ENCODING 113
SWIDTH 617 0
DWIDTH 9 0
BBX 8 10 0 -3
BITMAP
3b
46
82
82
82
46
3a
02
02
0f
ENDCHAR
STARTCHAR r
ENCODING 114
SWIDTH 617 0
DWIDTH 9 0
BBX 7 7 1 0
BITMAP
cc
52
60
40
40
40
f0
ENDCHAR
STARTCHAR s
ENCODING 115
SWIDTH 617 0
DWIDTH 9 0
BBX 6 7 1 0
BITMAP
7c
84
80
78
04
84
f8
ENDCHAR
STARTCHAR t
ENCODING 116
SWIDTH 617 0
DWIDTH 9 0
BBX 6 9 1 0
BITMAP
40
40
f8
40
40
40
40
44
38
ENDCHAR
STARTCHAR u
ENCODING 117
SWIDTH 617 0
DWIDTH 9 0
BBX 8 7 0 0
BITMAP
c6
42
42
42
42
46
3b
ENDCHAR
STARTCHAR v
ENCODING 118
SWIDTH 617 0
DWIDTH 9 0
BBX 8 7 0 0
BITMAP
e7
42
42
24
24
18
18
ENDCHAR
STARTCHAR w
ENCODING 119
SWIDTH 617 0
DWIDTH 9 0
BBX 9 7 0 0
BITMAP
e380
4100
4900
4900
2a00
3600
3600
ENDCHAR
STARTCHAR x
ENCODING 120
SWIDTH 617 0
DWIDTH 9 0
BBX 7 7 1 0
BITMAP
ee
44
28
10
28
44
ee
ENDCHAR
STARTCHAR y
ENCODING 121
SWIDTH 617 0
DWIDTH 9 0
BBX 8 10 0 -3
BITMAP
e7
42
42
24
24
18
08
10
10
78
ENDCHAR
STARTCHAR z
ENCODING 122
SWIDTH 617 0
DWIDTH 9 0
BBX 5 7 1 0
BITMAP
f8
88
10
20
40
88
f8
ENDCHAR
STARTCHAR braceleft
ENCODING 123
SWIDTH 617 0
DWIDTH 9 0
BBX 3 12 3 -2
BITMAP
20
40
40
40
40
80
40
40
40
40
40
20
ENDCHAR
STARTCHAR bar
ENCODING 124
SWIDTH 617 0
DWIDTH 9 0
BBX 1 11 4 -2
BITMAP
80
80
80
80
80
80
80
80
80
80
80
ENDCHAR
STARTCHAR braceright
ENCODING 125
SWIDTH 617 0
DWIDTH 9 0
BBX 3 12 2 -2
BITMAP
80
40
40
40
40
20
40
40
40
40
40
80
ENDCHAR
STARTCHAR asciitilde
ENCODING 126
SWIDTH 617 0
DWIDTH 9 0
BBX 6 2 1 3
BITMAP
64
98
ENDCHAR
STARTCHAR nobreakspace
ENCODING 160
SWIDTH 617 0
DWIDTH 9 0
BBX 1 1 0 0
BITMAP
00
ENDCHAR
STARTCHAR exclamdown
ENCODING 161
SWIDTH 617 0
DWIDTH 9 0
BBX 8 9 0 0
BITMAP
7e
c3
21
41
41
41
41
41
41
ENDCHAR
STARTCHAR cent
ENCODING 162
SWIDTH 617 0
DWIDTH 9 0
BBX 7 9 1 0
BITMAP
72
ca
aa
52
12
12
12
12
3e
ENDCHAR
STARTCHAR sterling
ENCODING 163
SWIDTH 617 0
DWIDTH 9 0
BBX 7 9 1 0
BITMAP
52
aa
ca
b2
52
12
12
12
3e
ENDCHAR
STARTCHAR currency
ENCODING 164
SWIDTH 617 0
DWIDTH 9 0
BBX 7 9 1 0
BITMAP
7c
c6
82
92
ea
d2
42
42
42
ENDCHAR
STARTCHAR yen
ENCODING 165
SWIDTH 617 0
DWIDTH 9 0
BBX 7 9 1 0
BITMAP
6c
d6
82
92
ea
d2
42
42
42
ENDCHAR
STARTCHAR brokenbar
ENCODING 166
SWIDTH 617 0
DWIDTH 9 0
BBX 8 9 0 0
BITMAP
51
a9
c9
b1
51
39
55
53
31
ENDCHAR
STARTCHAR section
ENCODING 167
SWIDTH 617 0
DWIDTH 9 0
BBX 6 9 1 0
BITMAP
08
14
0c
84
44
24
14
0c
04
ENDCHAR
STARTCHAR diaeresis
ENCODING 168
SWIDTH 617 0
DWIDTH 9 0
BBX 7 9 1 0
BITMAP
7c
86
82
92
2a
1a
06
06
02
ENDCHAR
STARTCHAR copyright
ENCODING 169
SWIDTH 617 0
DWIDTH 9 0
BBX 8 9 0 0
BITMAP
38
44
a2
52
32
22
2e
35
33
ENDCHAR
STARTCHAR ordfeminine
ENCODING 170
SWIDTH 617 0
DWIDTH 9 0
BBX 8 9 0 0
BITMAP
71
ce
aa
51
11
11
11
11
3f
ENDCHAR
STARTCHAR guillemotleft
ENCODING 171
SWIDTH 617 0
DWIDTH 9 0
BBX 8 9 0 0
BITMAP
51
ae
ca
b1
51
11
11
11
3f
ENDCHAR
STARTCHAR notsign
ENCODING 172
SWIDTH 617 0
DWIDTH 9 0
BBX 9 9 0 0
BITMAP
7880
cc80
6480
8480
8480
8480
cf80
b580
4c80
ENDCHAR
STARTCHAR hyphen
ENCODING 173
SWIDTH 617 0
DWIDTH 9 0
BBX 9 12 0 -3
BITMAP
7880
cc80
6480
8480
8480
8480
c480
a480
4300
0400
0a80
0700
ENDCHAR
STARTCHAR registered
ENCODING 174
SWIDTH 617 0
DWIDTH 9 0
BBX 8 12 0 -3
BITMAP
3e
63
11
21
21
21
61
a1
45
1d
2b
11
ENDCHAR
STARTCHAR macron
ENCODING 175
SWIDTH 617 0
DWIDTH 9 0
BBX 8 12 0 -3
BITMAP
3e
63
11
21
21
21
61
a1
51
35
5f
29
ENDCHAR
STARTCHAR degree
ENCODING 176
SWIDTH 617 0
DWIDTH 9 0
BBX 7 13 1 -4
BITMAP
3a
44
f8
24
54
34
14
14
08
54
4c
b4
6c
ENDCHAR
STARTCHAR plusminus
ENCODING 177
SWIDTH 617 0
DWIDTH 9 0
BBX 8 9 0 0
BITMAP
52
ad
d5
a9
69
31
31
21
21
ENDCHAR
STARTCHAR twosuperior
ENCODING 178
SWIDTH 617 0
DWIDTH 9 0
BBX 9 9 0 0
BITMAP
6c80
9680
8280
9280
aa80
9280
a680
cb80
c680
ENDCHAR
STARTCHAR threesuperior
ENCODING 179
SWIDTH 617 0
DWIDTH 9 0
BBX 9 9 0 0
BITMAP
7900
cd00
6500
8500
8500
8500
c700
a680
4500
ENDCHAR
STARTCHAR acute
ENCODING 180
SWIDTH 617 0
DWIDTH 9 0
BBX 7 9 1 0
BITMAP
7c
c6
82
92
aa
92
52
62
42
ENDCHAR
STARTCHAR mu
ENCODING 181
SWIDTH 617 0
DWIDTH 9 0
BBX 7 9 1 0
BITMAP
6c
d6
82
92
aa
92
52
62
42
ENDCHAR
STARTCHAR paragraph
ENCODING 182
SWIDTH 617 0
DWIDTH 9 0
BBX 8 9 0 0
BITMAP
7e
c3
21
41
41
41
61
51
21
ENDCHAR
STARTCHAR periodcentered
ENCODING 183
SWIDTH 617 0
DWIDTH 9 0
BBX 8 9 0 0
BITMAP
46
a5
6d
29
29
31
31
21
21
ENDCHAR
STARTCHAR cedilla
ENCODING 184
SWIDTH 617 0
DWIDTH 9 0
BBX 7 9 1 0
BITMAP
3c
42
fc
22
22
22
22
22
7e
ENDCHAR
STARTCHAR onesuperior
ENCODING 185
SWIDTH 617 0
DWIDTH 9 0
BBX 9 9 0 0
BITMAP
4100
a100
6100
2100
2100
2100
2700
2a80
3100
ENDCHAR
STARTCHAR masculine
ENCODING 186
SWIDTH 617 0
DWIDTH 9 0
BBX 8 9 0 0
BITMAP
41
a1
61
21
21
21
21
21
7f
ENDCHAR
STARTCHAR guillemotright
ENCODING 187
SWIDTH 617 0
DWIDTH 9 0
BBX 8 13 0 0
BITMAP
01
01
01
01
41
a1
61
21
21
21
21
21
7f
ENDCHAR
STARTCHAR onequarter
ENCODING 188
SWIDTH 617 0
DWIDTH 9 0
BBX 7 9 1 0
BITMAP
42
a2
c2
82
82
92
aa
c6
82
ENDCHAR
STARTCHAR onehalf
ENCODING 189
SWIDTH 617 0
DWIDTH 9 0
BBX 7 13 1 0
BITMAP
02
02
02
02
42
a2
c2
82
82
92
aa
c6
82
ENDCHAR
STARTCHAR threequarters
ENCODING 190
SWIDTH 617 0
DWIDTH 9 0
BBX 8 9 0 0
BITMAP
49
a9
55
55
55
63
63
41
41
ENDCHAR
STARTCHAR questiondown
ENCODING 191
SWIDTH 617 0
DWIDTH 9 0
BBX 8 13 0 0
BITMAP
01
01
01
01
49
a9
55
55
55
63
63
41
41
ENDCHAR
STARTCHAR Agrave
ENCODING 192
SWIDTH 617 0
DWIDTH 9 0
BBX 8 9 0 0
BITMAP
1e
63
11
21
21
21
61
a1
41
ENDCHAR
STARTCHAR Aacute
ENCODING 193
SWIDTH 617 0
DWIDTH 9 0
BBX 8 9 0 0
BITMAP
41
a1
61
21
21
79
a5
a3
61
ENDCHAR
STARTCHAR Acircumflex
ENCODING 194
SWIDTH 617 0
DWIDTH 9 0
BBX 7 9 1 0
BITMAP
62
d2
a2
82
72
42
42
42
7e
ENDCHAR
STARTCHAR Atilde
ENCODING 195
SWIDTH 617 0
DWIDTH 9 0
BBX 7 9 1 0
BITMAP
3c
c6
82
f8
08
08
18
28
10
ENDCHAR
STARTCHAR Adiaeresis
ENCODING 196
SWIDTH 617 0
DWIDTH 9 0
BBX 8 13 0 -4
BITMAP
7e
c3
21
41
41
41
61
51
21
01
01
01
01
ENDCHAR
STARTCHAR Aring
ENCODING 197
SWIDTH 617 0
DWIDTH 9 0
BBX 8 9 0 0
BITMAP
3e
43
91
39
2d
45
63
53
21
ENDCHAR
STARTCHAR AE
ENCODING 198
SWIDTH 617 0
DWIDTH 9 0
BBX 8 13 0 -4
BITMAP
3e
63
11
21
21
21
61
a1
41
01
01
01
01
ENDCHAR
STARTCHAR Ccedilla
ENCODING 199
SWIDTH 617 0
DWIDTH 9 0
BBX 7 9 0 0
BITMAP
7c
c6
82
82
02
02
06
0a
04
ENDCHAR
STARTCHAR Egrave
ENCODING 200
SWIDTH 617 0
DWIDTH 9 0
BBX 7 10 1 0
BITMAP
02
3a
44
82
92
ea
d2
42
42
42
ENDCHAR
STARTCHAR Eacute
ENCODING 201
SWIDTH 617 0
DWIDTH 9 0
BBX 9 9 0 0
BITMAP
4100
a100
6100
2500
2b80
2700
2100
2100
7f00
ENDCHAR
STARTCHAR Ecircumflex
ENCODING 202
SWIDTH 617 0
DWIDTH 9 0
BBX 8 10 0 0
BITMAP
01
3e
47
99
39
2d
45
63
53
21
ENDCHAR
STARTCHAR Ediaeresis
ENCODING 203
SWIDTH 617 0
DWIDTH 9 0
BBX 8 9 0 0
BITMAP
42
a5
62
25
25
29
29
31
21
ENDCHAR
STARTCHAR Igrave
ENCODING 204
SWIDTH 617 0
DWIDTH 9 0
BBX 9 11 0 0
BITMAP
0280
0580
4b00
a900
5500
5500
5500
6300
6300
4100
4100
ENDCHAR
STARTCHAR Iacute
ENCODING 205
SWIDTH 617 0
DWIDTH 9 0
BBX 8 9 0 0
BITMAP
7e
83
21
51
61
41
41
41
7f
ENDCHAR
STARTCHAR Icircumflex
ENCODING 206
SWIDTH 617 0
DWIDTH 9 0
BBX 7 9 1 0
BITMAP
7a
84
fa
02
42
a2
c2
82
fe
ENDCHAR
STARTCHAR Idiaeresis
ENCODING 207
SWIDTH 617 0
DWIDTH 9 0
BBX 7 9 1 0
BITMAP
42
a2
c6
7a
02
02
02
02
02
ENDCHAR
STARTCHAR ETH
ENCODING 208
SWIDTH 617 0
DWIDTH 9 0
BBX 6 9 1 0
BITMAP
44
ac
78
00
00
00
44
ac
78
ENDCHAR
STARTCHAR Ntilde
ENCODING 209
SWIDTH 0 0
DWIDTH 0 0
BBX 6 3 -6 10
BITMAP
44
ac
78
ENDCHAR
STARTCHAR Ograve
ENCODING 210
SWIDTH 617 0
DWIDTH 9 0
BBX 7 9 1 0
BITMAP
7c
86
82
02
02
02
02
02
02
ENDCHAR
STARTCHAR Oacute
ENCODING 211
SWIDTH 617 0
DWIDTH 9 0
BBX 16 13 -5 0
BITMAP
4000
a000
4000
0000
01f0
0218
0208
0008
0008
0008
0008
0008
0008
ENDCHAR
STARTCHAR Ocircumflex
ENCODING 212
SWIDTH 0 0
DWIDTH 0 0
BBX 7 3 -9 10
BITMAP
7c
fe
02
ENDCHAR
STARTCHAR Otilde
ENCODING 213
SWIDTH 0 0
DWIDTH 0 0
BBX 7 4 -9 10
BITMAP
02
7a
fe
02
ENDCHAR
STARTCHAR Odiaeresis
ENCODING 214
SWIDTH 0 0
DWIDTH 0 0
BBX 7 5 -9 10
BITMAP
04
0a
7c
fe
02
ENDCHAR
STARTCHAR multiply
ENCODING 215
SWIDTH 0 0
DWIDTH 0 0
BBX 7 4 -9 10
BITMAP
0a
7a
fe
02
ENDCHAR
STARTCHAR Ooblique
ENCODING 216
SWIDTH 0 0
DWIDTH 0 0
BBX 3 4 -4 -5
BITMAP
e0
e0
20
20
ENDCHAR
STARTCHAR Ugrave
ENCODING 217
SWIDTH 0 0
DWIDTH 0 0
BBX 5 4 -6 -5
BITMAP
e8
e8
28
78
ENDCHAR
STARTCHAR Uacute
ENCODING 218
SWIDTH 0 0
DWIDTH 0 0
BBX 2 2 -3 -3
BITMAP
c0
c0
ENDCHAR
STARTCHAR ssharp
ENCODING 223
SWIDTH 617 0
DWIDTH 9 0
BBX 7 13 1 -2
BITMAP
10
10
fc
52
52
52
7c
52
52
52
fc
10
10
ENDCHAR
STARTCHAR agrave
ENCODING 224
SWIDTH 617 0
DWIDTH 9 0
BBX 3 9 3 0
BITMAP
80
80
80
80
80
80
c0
a0
40
ENDCHAR
STARTCHAR aacute
ENCODING 225
SWIDTH 617 0
DWIDTH 9 0
BBX 7 9 1 0
BITMAP
88
88
88
88
88
88
cc
aa
44
ENDCHAR
STARTCHAR acircumflex
ENCODING 226
SWIDTH 617 0
DWIDTH 9 0
BBX 5 13 2 0
BITMAP
70
88
60
20
20
20
20
20
20
20
30
28
10
ENDCHAR
STARTCHAR atilde
ENCODING 227
SWIDTH 617 0
DWIDTH 9 0
BBX 6 13 1 0
BITMAP
60
d0
b0
50
10
10
10
10
10
10
18
14
08
ENDCHAR
STARTCHAR adiaeresis
ENCODING 228
SWIDTH 617 0
DWIDTH 9 0
BBX 7 13 0 0
BITMAP
88
58
78
28
08
08
08
08
08
08
0c
0a
04
ENDCHAR
STARTCHAR aring
ENCODING 229
SWIDTH 617 0
DWIDTH 9 0
BBX 7 13 1 -4
BITMAP
7c
86
82
02
02
02
02
02
02
02
02
02
02
ENDCHAR
STARTCHAR ae
ENCODING 230
SWIDTH 617 0
DWIDTH 9 0
BBX 7 13 1 -4
BITMAP
6e
92
e2
a2
42
02
02
02
02
02
02
02
02
ENDCHAR
STARTCHAR ccedilla
ENCODING 231
SWIDTH 0 0
DWIDTH 0 0
BBX 6 5 -8 10
BITMAP
04
78
80
a8
78
ENDCHAR
STARTCHAR egrave
ENCODING 232
SWIDTH 0 0
DWIDTH 0 0
BBX 1 3 -3 14
BITMAP
80
80
80
ENDCHAR
STARTCHAR eacute
ENCODING 233
SWIDTH 0 0
DWIDTH 0 0
BBX 5 4 -6 14
BITMAP
c0
e8
50
e0
ENDCHAR
STARTCHAR ecircumflex
ENCODING 234
SWIDTH 0 0
DWIDTH 0 0
BBX 7 4 -8 14
BITMAP
00
54
ac
e8
ENDCHAR
STARTCHAR ediaeresis
ENCODING 235
SWIDTH 0 0
DWIDTH 0 0
BBX 5 3 -6 14
BITMAP
20
f8
20
ENDCHAR
STARTCHAR igrave
ENCODING 236
SWIDTH 0 0
DWIDTH 0 0
BBX 6 4 -7 14
BITMAP
04
78
a0
40
ENDCHAR
STARTCHAR iacute
ENCODING 237
SWIDTH 0 0
DWIDTH 0 0
BBX 3 3 -5 10
BITMAP
40
a0
40
ENDCHAR
STARTCHAR icircumflex
ENCODING 238
SWIDTH 0 0
DWIDTH 0 0
BBX 4 5 -6 10
BITMAP
30
40
60
80
60
ENDCHAR
STARTCHAR idiaeresis
ENCODING 239
SWIDTH 617 0
DWIDTH 9 0
BBX 8 7 0 0
BITMAP
3c
42
99
bd
99
42
3c
ENDCHAR
STARTCHAR eth
ENCODING 240
SWIDTH 617 0
DWIDTH 9 0
BBX 7 6 1 0
BITMAP
7c
c6
82
82
c6
7c
ENDCHAR
STARTCHAR ntilde
ENCODING 241
SWIDTH 617 0
DWIDTH 9 0
BBX 7 7 1 0
BITMAP
78
c4
82
ba
aa
74
08
ENDCHAR
STARTCHAR ograve
ENCODING 242
SWIDTH 617 0
DWIDTH 9 0
BBX 9 10 -1 0
BITMAP
8000
4000
4000
4000
5b00
7480
6880
5080
4080
7f80
ENDCHAR
STARTCHAR oacute
ENCODING 243
SWIDTH 617 0
DWIDTH 9 0
BBX 8 6 0 0
BITMAP
76
c9
89
a9
d9
69
ENDCHAR
STARTCHAR ocircumflex
ENCODING 244
SWIDTH 617 0
DWIDTH 9 0
BBX 8 9 0 0
BITMAP
01
01
01
3e
c0
98
98
90
7f
ENDCHAR
STARTCHAR otilde
ENCODING 245
SWIDTH 617 0
DWIDTH 9 0
BBX 8 9 0 0
BITMAP
01
11
29
3e
c0
98
98
90
7f
ENDCHAR
STARTCHAR odiaeresis
ENCODING 246
SWIDTH 617 0
DWIDTH 9 0
BBX 8 9 0 0
BITMAP
80
40
40
5e
63
01
21
56
3c
ENDCHAR
STARTCHAR division
ENCODING 247
SWIDTH 617 0
DWIDTH 9 0
BBX 9 8 0 0
BITMAP
0080
0100
6900
9500
8500
a500
d500
6600
ENDCHAR
STARTCHAR oslash
ENCODING 248
SWIDTH 617 0
DWIDTH 9 0
BBX 9 8 0 0
BITMAP
0080
0080
7f00
c000
8000
a600
f500
4e00
ENDCHAR
STARTCHAR ugrave
ENCODING 249
SWIDTH 617 0
DWIDTH 9 0
BBX 9 8 0 0
BITMAP
0080
0080
7680
c900
8400
9400
aa00
7200
ENDCHAR
STARTCHAR uacute
ENCODING 250
SWIDTH 617 0
DWIDTH 9 0
BBX 8 9 0 0
BITMAP
45
a5
cd
75
05
05
05
05
05
ENDCHAR
STARTCHAR ucircumflex
ENCODING 251
SWIDTH 617 0
DWIDTH 9 0
BBX 9 6 0 1
BITMAP
6000
8800
8a00
9f80
9500
6000
ENDCHAR
ENDFONT
